<svg class="marks" width="854" height="647" viewBox="0 0 854 647" version="1.1" xmlns="http://www.w3.org/2000/svg" xmlns:xlink="http://www.w3.org/1999/xlink"><defs><clipPath id="clip1"><rect x="0" y="0" width="800" height="600"></rect></clipPath><clipPath id="clip2"><rect x="0" y="0" width="800" height="600"></rect></clipPath><clipPath id="clip3"><rect x="0" y="0" width="800" height="600"></rect></clipPath><clipPath id="clip4"><rect x="0" y="0" width="800" height="600"></rect></clipPath><clipPath id="clip5"><rect x="0" y="0" width="800" height="600"></rect></clipPath></defs><rect width="854" height="647" fill="white"></rect><g fill="none" stroke-miterlimit="10" transform="translate(48,10)"><g class="mark-group role-frame root" role="graphics-object" aria-roledescription="group mark container"><g transform="translate(0,0)"><path class="background" aria-hidden="true" d="M0.5,0.5h800v600h-800Z" stroke="#ddd"></path><g><g class="mark-group role-axis" aria-hidden="true"><g transform="translate(0.5,600.5)"><path class="background" aria-hidden="true" d="M0,0h0v0h0Z" pointer-events="none"></path><g><g class="mark-rule role-axis-grid" pointer-events="none"><line transform="translate(0,-600)" x2="0" y2="600" stroke="#ddd" stroke-width="1" opacity="1"></line><line transform="translate(50,-600)" x2="0" y2="600" stroke="#ddd" stroke-width="1" opacity="1"></line><line transform="translate(100,-600)" x2="0" y2="600" stroke="#ddd" stroke-width="1" opacity="1"></line><line transform="translate(150,-600)" x2="0" y2="600" stroke="#ddd" stroke-width="1" opacity="1"></line><line transform="translate(200,-600)" x2="0" y2="600" stroke="#ddd" stroke-width="1" opacity="1"></line><line transform="translate(250,-600)" x2="0" y2="600" stroke="#ddd" stroke-width="1" opacity="1"></line><line transform="translate(300,-600)" x2="0" y2="600" stroke="#ddd" stroke-width="1" opacity="1"></line><line transform="translate(350,-600)" x2="0" y2="600" stroke="#ddd" stroke-width="1" opacity="1"></line><line transform="translate(400,-600)" x2="0" y2="600" stroke="#ddd" stroke-width="1" opacity="1"></line><line transform="translate(450,-600)" x2="0" y2="600" stroke="#ddd" stroke-width="1" opacity="1"></line><line transform="translate(500,-600)" x2="0" y2="600" stroke="#ddd" stroke-width="1" opacity="1"></line><line transform="translate(550,-600)" x2="0" y2="600" stroke="#ddd" stroke-width="1" opacity="1"></line><line transform="translate(600,-600)" x2="0" y2="600" stroke="#ddd" stroke-width="1" opacity="1"></line><line transform="translate(650,-600)" x2="0" y2="600" stroke="#ddd" stroke-width="1" opacity="1"></line><line transform="translate(700,-600)" x2="0" y2="600" stroke="#ddd" stroke-width="1" opacity="1"></line><line transform="translate(750,-600)" x2="0" y2="600" stroke="#ddd" stroke-width="1" opacity="1"></line><line transform="translate(800,-600)" x2="0" y2="600" stroke="#ddd" stroke-width="1" opacity="1"></line></g></g><path class="foreground" aria-hidden="true" d="" pointer-events="none" display="none"></path></g></g><g class="mark-group role-axis" aria-hidden="true"><g transform="translate(0.5,0.5)"><path class="background" aria-hidden="true" d="M0,0h0v0h0Z" pointer-events="none"></path><g><g class="mark-rule role-axis-grid" pointer-events="none"><line transform="translate(0,600)" x2="800" y2="0" stroke="#ddd" stroke-width="1" opacity="1"></line><line transform="translate(0,557)" x2="800" y2="0" stroke="#ddd" stroke-width="1" opacity="1"></line><line transform="translate(0,514)" x2="800" y2="0" stroke="#ddd" stroke-width="1" opacity="1"></line><line transform="translate(0,471)" x2="800" y2="0" stroke="#ddd" stroke-width="1" opacity="1"></line><line transform="translate(0,429)" x2="800" y2="0" stroke="#ddd" stroke-width="1" opacity="1"></line><line transform="translate(0,386)" x2="800" y2="0" stroke="#ddd" stroke-width="1" opacity="1"></line><line transform="translate(0,343)" x2="800" y2="0" stroke="#ddd" stroke-width="1" opacity="1"></line><line transform="translate(0,300)" x2="800" y2="0" stroke="#ddd" stroke-width="1" opacity="1"></line><line transform="translate(0,257)" x2="800" y2="0" stroke="#ddd" stroke-width="1" opacity="1"></line><line transform="translate(0,214)" x2="800" y2="0" stroke="#ddd" stroke-width="1" opacity="1"></line><line transform="translate(0,171)" x2="800" y2="0" stroke="#ddd" stroke-width="1" opacity="1"></line><line transform="translate(0,129)" x2="800" y2="0" stroke="#ddd" stroke-width="1" opacity="1"></line><line transform="translate(0,86)" x2="800" y2="0" stroke="#ddd" stroke-width="1" opacity="1"></line><line transform="translate(0,43)" x2="800" y2="0" stroke="#ddd" stroke-width="1" opacity="1"></line><line transform="translate(0,0)" x2="800" y2="0" stroke="#ddd" stroke-width="1" opacity="1"></line></g></g><path class="foreground" aria-hidden="true" d="" pointer-events="none" display="none"></path></g></g><g class="mark-group role-axis" role="graphics-symbol" aria-roledescription="axis" aria-label="X-axis titled 'x' for a linear scale with values from -4 to 4"><g transform="translate(0.5,600.5)"><path class="background" aria-hidden="true" d="M0,0h0v0h0Z" pointer-events="none"></path><g><g class="mark-rule role-axis-tick" pointer-events="none"><line transform="translate(0,0)" x2="0" y2="5" stroke="#888" stroke-width="1" opacity="1"></line><line transform="translate(50,0)" x2="0" y2="5" stroke="#888" stroke-width="1" opacity="1"></line><line transform="translate(100,0)" x2="0" y2="5" stroke="#888" stroke-width="1" opacity="1"></line><line transform="translate(150,0)" x2="0" y2="5" stroke="#888" stroke-width="1" opacity="1"></line><line transform="translate(200,0)" x2="0" y2="5" stroke="#888" stroke-width="1" opacity="1"></line><line transform="translate(250,0)" x2="0" y2="5" stroke="#888" stroke-width="1" opacity="1"></line><line transform="translate(300,0)" x2="0" y2="5" stroke="#888" stroke-width="1" opacity="1"></line><line transform="translate(350,0)" x2="0" y2="5" stroke="#888" stroke-width="1" opacity="1"></line><line transform="translate(400,0)" x2="0" y2="5" stroke="#888" stroke-width="1" opacity="1"></line><line transform="translate(450,0)" x2="0" y2="5" stroke="#888" stroke-width="1" opacity="1"></line><line transform="translate(500,0)" x2="0" y2="5" stroke="#888" stroke-width="1" opacity="1"></line><line transform="translate(550,0)" x2="0" y2="5" stroke="#888" stroke-width="1" opacity="1"></line><line transform="translate(600,0)" x2="0" y2="5" stroke="#888" stroke-width="1" opacity="1"></line><line transform="translate(650,0)" x2="0" y2="5" stroke="#888" stroke-width="1" opacity="1"></line><line transform="translate(700,0)" x2="0" y2="5" stroke="#888" stroke-width="1" opacity="1"></line><line transform="translate(750,0)" x2="0" y2="5" stroke="#888" stroke-width="1" opacity="1"></line><line transform="translate(800,0)" x2="0" y2="5" stroke="#888" stroke-width="1" opacity="1"></line></g><g class="mark-text role-axis-label" pointer-events="none"><text text-anchor="start" transform="translate(0,15)" font-family="sans-serif" font-size="10px" fill="#000" opacity="1">-4.0</text><text text-anchor="middle" transform="translate(50,15)" font-family="sans-serif" font-size="10px" fill="#000" opacity="1">-3.5</text><text text-anchor="middle" transform="translate(100,15)" font-family="sans-serif" font-size="10px" fill="#000" opacity="1">-3.0</text><text text-anchor="middle" transform="translate(150,15)" font-family="sans-serif" font-size="10px" fill="#000" opacity="1">-2.5</text><text text-anchor="middle" transform="translate(200,15)" font-family="sans-serif" font-size="10px" fill="#000" opacity="1">-2.0</text><text text-anchor="middle" transform="translate(250,15)" font-family="sans-serif" font-size="10px" fill="#000" opacity="1">-1.5</text><text text-anchor="middle" transform="translate(300,15)" font-family="sans-serif" font-size="10px" fill="#000" opacity="1">-1.0</text><text text-anchor="middle" transform="translate(350,15)" font-family="sans-serif" font-size="10px" fill="#000" opacity="1">-0.5</text><text text-anchor="middle" transform="translate(400,15)" font-family="sans-serif" font-size="10px" fill="#000" opacity="1">0.0</text><text text-anchor="middle" transform="translate(450,15)" font-family="sans-serif" font-size="10px" fill="#000" opacity="1">0.5</text><text text-anchor="middle" transform="translate(500,15)" font-family="sans-serif" font-size="10px" fill="#000" opacity="1">1.0</text><text text-anchor="middle" transform="translate(550,15)" font-family="sans-serif" font-size="10px" fill="#000" opacity="1">1.5</text><text text-anchor="middle" transform="translate(600,15)" font-family="sans-serif" font-size="10px" fill="#000" opacity="1">2.0</text><text text-anchor="middle" transform="translate(650,15)" font-family="sans-serif" font-size="10px" fill="#000" opacity="1">2.5</text><text text-anchor="middle" transform="translate(700,15)" font-family="sans-serif" font-size="10px" fill="#000" opacity="1">3.0</text><text text-anchor="middle" transform="translate(750,15)" font-family="sans-serif" font-size="10px" fill="#000" opacity="1">3.5</text><text text-anchor="end" transform="translate(800,15)" font-family="sans-serif" font-size="10px" fill="#000" opacity="1">4.0</text></g><g class="mark-rule role-axis-domain" pointer-events="none"><line transform="translate(0,0)" x2="800" y2="0" stroke="#888" stroke-width="1" opacity="1"></line></g><g class="mark-text role-axis-title" pointer-events="none"><text text-anchor="middle" transform="translate(400,30)" font-family="sans-serif" font-size="11px" font-weight="bold" fill="#000" opacity="1">x</text></g></g><path class="foreground" aria-hidden="true" d="" pointer-events="none" display="none"></path></g></g><g class="mark-group role-axis" role="graphics-symbol" aria-roledescription="axis" aria-label="Y-axis titled 'y' for a linear scale with values from -200 to 80"><g transform="translate(0.5,0.5)"><path class="background" aria-hidden="true" d="M0,0h0v0h0Z" pointer-events="none"></path><g><g class="mark-rule role-axis-tick" pointer-events="none"><line transform="translate(0,600)" x2="-5" y2="0" stroke="#888" stroke-width="1" opacity="1"></line><line transform="translate(0,557)" x2="-5" y2="0" stroke="#888" stroke-width="1" opacity="1"></line><line transform="translate(0,514)" x2="-5" y2="0" stroke="#888" stroke-width="1" opacity="1"></line><line transform="translate(0,471)" x2="-5" y2="0" stroke="#888" stroke-width="1" opacity="1"></line><line transform="translate(0,429)" x2="-5" y2="0" stroke="#888" stroke-width="1" opacity="1"></line><line transform="translate(0,386)" x2="-5" y2="0" stroke="#888" stroke-width="1" opacity="1"></line><line transform="translate(0,343)" x2="-5" y2="0" stroke="#888" stroke-width="1" opacity="1"></line><line transform="translate(0,300)" x2="-5" y2="0" stroke="#888" stroke-width="1" opacity="1"></line><line transform="translate(0,257)" x2="-5" y2="0" stroke="#888" stroke-width="1" opacity="1"></line><line transform="translate(0,214)" x2="-5" y2="0" stroke="#888" stroke-width="1" opacity="1"></line><line transform="translate(0,171)" x2="-5" y2="0" stroke="#888" stroke-width="1" opacity="1"></line><line transform="translate(0,129)" x2="-5" y2="0" stroke="#888" stroke-width="1" opacity="1"></line><line transform="translate(0,86)" x2="-5" y2="0" stroke="#888" stroke-width="1" opacity="1"></line><line transform="translate(0,43)" x2="-5" y2="0" stroke="#888" stroke-width="1" opacity="1"></line><line transform="translate(0,0)" x2="-5" y2="0" stroke="#888" stroke-width="1" opacity="1"></line></g><g class="mark-text role-axis-label" pointer-events="none"><text text-anchor="end" transform="translate(-7,603)" font-family="sans-serif" font-size="10px" fill="#000" opacity="1">-200</text><text text-anchor="end" transform="translate(-7,560.1428571428571)" font-family="sans-serif" font-size="10px" fill="#000" opacity="1">-180</text><text text-anchor="end" transform="translate(-7,517.2857142857143)" font-family="sans-serif" font-size="10px" fill="#000" opacity="1">-160</text><text text-anchor="end" transform="translate(-7,474.42857142857144)" font-family="sans-serif" font-size="10px" fill="#000" opacity="1">-140</text><text text-anchor="end" transform="translate(-7,431.57142857142856)" font-family="sans-serif" font-size="10px" fill="#000" opacity="1">-120</text><text text-anchor="end" transform="translate(-7,388.71428571428567)" font-family="sans-serif" font-size="10px" fill="#000" opacity="1">-100</text><text text-anchor="end" transform="translate(-7,345.85714285714283)" font-family="sans-serif" font-size="10px" fill="#000" opacity="1">-80</text><text text-anchor="end" transform="translate(-7,303)" font-family="sans-serif" font-size="10px" fill="#000" opacity="1">-60</text><text text-anchor="end" transform="translate(-7,260.14285714285717)" font-family="sans-serif" font-size="10px" fill="#000" opacity="1">-40</text><text text-anchor="end" transform="translate(-7,217.28571428571425)" font-family="sans-serif" font-size="10px" fill="#000" opacity="1">-20</text><text text-anchor="end" transform="translate(-7,174.42857142857142)" font-family="sans-serif" font-size="10px" fill="#000" opacity="1">0</text><text text-anchor="end" transform="translate(-7,131.57142857142858)" font-family="sans-serif" font-size="10px" fill="#000" opacity="1">20</text><text text-anchor="end" transform="translate(-7,88.71428571428574)" font-family="sans-serif" font-size="10px" fill="#000" opacity="1">40</text><text text-anchor="end" transform="translate(-7,45.85714285714284)" font-family="sans-serif" font-size="10px" fill="#000" opacity="1">60</text><text text-anchor="end" transform="translate(-7,3)" font-family="sans-serif" font-size="10px" fill="#000" opacity="1">80</text></g><g class="mark-rule role-axis-domain" pointer-events="none"><line transform="translate(0,600)" x2="0" y2="-600" stroke="#888" stroke-width="1" opacity="1"></line></g><g class="mark-text role-axis-title" pointer-events="none"><text text-anchor="middle" transform="translate(-31.0146484375,300) rotate(-90) translate(0,-2)" font-family="sans-serif" font-size="11px" font-weight="bold" fill="#000" opacity="1">y</text></g></g><path class="foreground" aria-hidden="true" d="" pointer-events="none" display="none"></path></g></g><g class="mark-line role-mark layer_0_marks" clip-path="url(#clip1)" role="graphics-object" aria-roledescription="line mark container" pointer-events="none"><path aria-label="x: -4; y: -186" role="graphics-symbol" aria-roledescription="line mark" d="M0,570L10.000000000000009,543.1671428571428L20.000000000000018,517.5085714285714L29.999999999999982,492.9985714285715L39.99999999999999,469.6114285714286L50,447.32142857142856L60.00000000000001,426.1028571428571L70.00000000000001,405.93L79.99999999999999,386.7771428571429L89.99999999999999,368.6185714285715L100,351.4285714285714L110.00000000000001,335.1814285714286L120.00000000000001,319.85142857142847L129.99999999999997,305.41285714285715L140.00000000000003,291.84L150,279.1071428571429L160,267.1885714285714L170.00000000000003,256.0585714285714L179.99999999999997,245.69142857142862L190.00000000000003,236.06142857142854L200,227.14285714285714L210,218.91L220.00000000000003,211.33714285714288L230.00000000000003,204.39857142857144L240.00000000000003,198.0685714285714L250,192.32142857142856L260,187.1314285714286L270,182.47285714285712L280,178.32000000000002L290.00000000000006,174.64714285714285L300,171.42857142857142L310,168.63857142857145L320,166.25142857142856L330,164.24142857142851L340.00000000000006,162.5828571428571L350,161.25000000000003L360,160.21714285714285L370,159.45857142857142L380,158.9485714285714L390.00000000000006,158.6614285714286L400,158.57142857142856L410.00000000000006,158.65285714285716L420,158.88000000000002L430,159.22714285714287L440.00000000000006,159.66857142857145L450,160.17857142857144L460.00000000000006,160.73142857142858L470,161.30142857142857L480.00000000000006,161.86285714285714L490.00000000000006,162.39000000000004L500,162.8571428571429L510.00000000000006,163.23857142857145L520,163.50857142857143L530.0000000000001,163.64142857142858L540,163.61142857142858L550,163.39285714285717L560,162.95999999999998L570,162.28714285714287L580.0000000000001,161.3485714285714L590,160.11857142857147L600,158.57142857142856L610,156.68142857142854L620,154.42285714285714L630.0000000000001,151.77L640,148.69714285714284L650,145.17857142857144L660,141.18857142857135L670,136.70142857142855L680.0000000000001,131.69142857142856L690,126.13285714285713L700,119.99999999999997L710,113.26714285714282L720,105.90857142857138L730.0000000000001,97.89857142857139L740,89.21142857142858L750,79.82142857142856L760,69.70285714285708L770,58.83000000000005L780.0000000000001,47.17714285714276L790,34.71857142857142" stroke="#f00" stroke-width="2"></path></g><g class="mark-rule role-mark layer_1_layer_0_marks" clip-path="url(#clip2)" role="graphics-object" aria-roledescription="rule mark container" pointer-events="none"><line aria-label="x: -1" role="graphics-symbol" aria-roledescription="rule mark" transform="translate(300,0)" x2="0" y2="600" stroke="black" stroke-dasharray="4,8"></line></g><g class="mark-text role-mark layer_1_layer_1_marks" clip-path="url(#clip3)" role="graphics-object" aria-roledescription="text mark container" pointer-events="none"><text aria-label="x: -1" role="graphics-symbol" aria-roledescription="text mark" text-anchor="start" transform="translate(304,303)" font-family="sans-serif" font-size="11px" fill="black">Root</text></g><g class="mark-symbol role-mark layer_2_layer_0_marks" clip-path="url(#clip4)" role="graphics-object" aria-roledescription="symbol mark container"><path aria-label="x: -3; y: -84" role="graphics-symbol" aria-roledescription="circle" transform="translate(100,351.4285714285714)" d="M2.7386127875258306,0A2.7386127875258306,2.7386127875258306,0,1,1,-2.7386127875258306,0A2.7386127875258306,2.7386127875258306,0,1,1,2.7386127875258306,0" fill="#4c78a8" stroke-width="2" opacity="0.7"></path><path aria-label="x: -1.92307692308; y: -23.016841147" role="graphics-symbol" aria-roledescription="circle" transform="translate(207.69230769230768,220.7503738864685)" d="M2.7386127875258306,0A2.7386127875258306,2.7386127875258306,0,1,1,-2.7386127875258306,0A2.7386127875258306,2.7386127875258306,0,1,1,2.7386127875258306,0" fill="#4c78a8" stroke-width="2" opacity="0.7"></path><path aria-label="x: -1.31050272562; y: -5.3710299268" role="graphics-symbol" aria-roledescription="circle" transform="translate(268.9497274379164,182.93792127171847)" d="M2.7386127875258306,0A2.7386127875258306,2.7386127875258306,0,1,1,-2.7386127875258306,0A2.7386127875258306,2.7386127875258306,0,1,1,2.7386127875258306,0" fill="#4c78a8" stroke-width="2" opacity="0.7"></path><path aria-label="x: -1.05213761193; y: -0.757393327393" role="graphics-symbol" aria-roledescription="circle" transform="translate(294.7862388065648,173.05155713012715)" d="M2.7386127875258306,0A2.7386127875258306,2.7386127875258306,0,1,1,-2.7386127875258306,0A2.7386127875258306,2.7386127875258306,0,1,1,2.7386127875258306,0" fill="#4c78a8" stroke-width="2" opacity="0.7"></path><path aria-label="x: -1.0018427585; y: -0.0258325890383" role="graphics-symbol" aria-roledescription="circle" transform="translate(299.8157241504685,171.48392697651053)" d="M2.7386127875258306,0A2.7386127875258306,2.7386127875258306,0,1,1,-2.7386127875258306,0A2.7386127875258306,2.7386127875258306,0,1,1,2.7386127875258306,0" fill="#4c78a8" stroke-width="2" opacity="0.7"></path><path aria-label="x: -1.00000242095; y: -0.0000338934036179" role="graphics-symbol" aria-roledescription="circle" transform="translate(299.9997579046785,171.42864405729347)" d="M2.7386127875258306,0A2.7386127875258306,2.7386127875258306,0,1,1,-2.7386127875258306,0A2.7386127875258306,2.7386127875258306,0,1,1,2.7386127875258306,0" fill="#4c78a8" stroke-width="2" opacity="0.7"></path></g><g class="mark-text role-mark layer_2_layer_1_marks" clip-path="url(#clip5)" role="graphics-object" aria-roledescription="text mark container" pointer-events="none"><text aria-label="x: -3; y: -84; index: 0" role="graphics-symbol" aria-roledescription="text mark" text-anchor="middle" transform="translate(100,344.4285714285714)" font-family="sans-serif" font-size="11px" fill="black">0</text><text aria-label="x: -1.92307692308; y: -23.016841147; index: 1" role="graphics-symbol" aria-roledescription="text mark" text-anchor="middle" transform="translate(207.69230769230768,213.7503738864685)" font-family="sans-serif" font-size="11px" fill="black">1</text><text aria-label="x: -1.31050272562; y: -5.3710299268; index: 2" role="graphics-symbol" aria-roledescription="text mark" text-anchor="middle" transform="translate(268.9497274379164,175.93792127171847)" font-family="sans-serif" font-size="11px" fill="black">2</text><text aria-label="x: -1.05213761193; y: -0.757393327393; index: 3" role="graphics-symbol" aria-roledescription="text mark" text-anchor="middle" transform="translate(294.7862388065648,166.05155713012715)" font-family="sans-serif" font-size="11px" fill="black">3</text><text aria-label="x: -1.0018427585; y: -0.0258325890383; index: 4" role="graphics-symbol" aria-roledescription="text mark" text-anchor="middle" transform="translate(299.8157241504685,164.48392697651053)" font-family="sans-serif" font-size="11px" fill="black">4</text><text aria-label="x: -1.00000242095; y: -0.0000338934036179; index: 5" role="graphics-symbol" aria-roledescription="text mark" text-anchor="middle" transform="translate(299.9997579046785,164.42864405729347)" font-family="sans-serif" font-size="11px" fill="black">5</text></g></g><path class="foreground" aria-hidden="true" d="" display="none"></path></g></g></g></svg>