<svg xmlns="http://www.w3.org/2000/svg" xmlns:xlink="http://www.w3.org/1999/xlink" version="1.1" class="marks" width="857" height="880" viewBox="0 0 857 880"><rect width="857" height="880" fill="white"/><g fill="none" stroke-miterlimit="10" transform="translate(51,34)"><g class="mark-group role-frame root" role="graphics-object" aria-roledescription="group mark container"><g transform="translate(0,0)"><path class="background" aria-hidden="true" d="M0.5,0.5h800v800h-800Z" stroke="#ddd"/><g><g class="mark-group role-axis" aria-hidden="true"><g transform="translate(0.5,800.5)"><path class="background" aria-hidden="true" d="M0,0h0v0h0Z" pointer-events="none"/><g><g class="mark-rule role-axis-grid" pointer-events="none"><line transform="translate(0,-800)" x2="0" y2="800" stroke="#ddd" stroke-width="1" opacity="1"/><line transform="translate(100,-800)" x2="0" y2="800" stroke="#ddd" stroke-width="1" opacity="1"/><line transform="translate(200,-800)" x2="0" y2="800" stroke="#ddd" stroke-width="1" opacity="1"/><line transform="translate(300,-800)" x2="0" y2="800" stroke="#ddd" stroke-width="1" opacity="1"/><line transform="translate(400,-800)" x2="0" y2="800" stroke="#ddd" stroke-width="1" opacity="1"/><line transform="translate(500,-800)" x2="0" y2="800" stroke="#ddd" stroke-width="1" opacity="1"/><line transform="translate(600,-800)" x2="0" y2="800" stroke="#ddd" stroke-width="1" opacity="1"/><line transform="translate(700,-800)" x2="0" y2="800" stroke="#ddd" stroke-width="1" opacity="1"/><line transform="translate(800,-800)" x2="0" y2="800" stroke="#ddd" stroke-width="1" opacity="1"/></g></g><path class="foreground" aria-hidden="true" d="" pointer-events="none" display="none"/></g></g><g class="mark-group role-axis" aria-hidden="true"><g transform="translate(0.5,0.5)"><path class="background" aria-hidden="true" d="M0,0h0v0h0Z" pointer-events="none"/><g><g class="mark-rule role-axis-grid" pointer-events="none"><line transform="translate(0,800)" x2="800" y2="0" stroke="#ddd" stroke-width="1" opacity="1"/><line transform="translate(0,700)" x2="800" y2="0" stroke="#ddd" stroke-width="1" opacity="1"/><line transform="translate(0,600)" x2="800" y2="0" stroke="#ddd" stroke-width="1" opacity="1"/><line transform="translate(0,500)" x2="800" y2="0" stroke="#ddd" stroke-width="1" opacity="1"/><line transform="translate(0,400)" x2="800" y2="0" stroke="#ddd" stroke-width="1" opacity="1"/><line transform="translate(0,300)" x2="800" y2="0" stroke="#ddd" stroke-width="1" opacity="1"/><line transform="translate(0,200)" x2="800" y2="0" stroke="#ddd" stroke-width="1" opacity="1"/><line transform="translate(0,100)" x2="800" y2="0" stroke="#ddd" stroke-width="1" opacity="1"/><line transform="translate(0,0)" x2="800" y2="0" stroke="#ddd" stroke-width="1" opacity="1"/></g></g><path class="foreground" aria-hidden="true" d="" pointer-events="none" display="none"/></g></g><g class="mark-group role-axis" role="graphics-symbol" aria-roledescription="axis" aria-label="X-axis titled 'x' for a linear scale with values from −4 to 4"><g transform="translate(0.5,800.5)"><path class="background" aria-hidden="true" d="M0,0h0v0h0Z" pointer-events="none"/><g><g class="mark-rule role-axis-tick" pointer-events="none"><line transform="translate(0,0)" x2="0" y2="5" stroke="#888" stroke-width="1" opacity="1"/><line transform="translate(100,0)" x2="0" y2="5" stroke="#888" stroke-width="1" opacity="1"/><line transform="translate(200,0)" x2="0" y2="5" stroke="#888" stroke-width="1" opacity="1"/><line transform="translate(300,0)" x2="0" y2="5" stroke="#888" stroke-width="1" opacity="1"/><line transform="translate(400,0)" x2="0" y2="5" stroke="#888" stroke-width="1" opacity="1"/><line transform="translate(500,0)" x2="0" y2="5" stroke="#888" stroke-width="1" opacity="1"/><line transform="translate(600,0)" x2="0" y2="5" stroke="#888" stroke-width="1" opacity="1"/><line transform="translate(700,0)" x2="0" y2="5" stroke="#888" stroke-width="1" opacity="1"/><line transform="translate(800,0)" x2="0" y2="5" stroke="#888" stroke-width="1" opacity="1"/></g><g class="mark-text role-axis-label" pointer-events="none"><text text-anchor="start" transform="translate(0,15)" font-family="sans-serif" font-size="10px" fill="#000" opacity="1">−4</text><text text-anchor="middle" transform="translate(100,15)" font-family="sans-serif" font-size="10px" fill="#000" opacity="1">−3</text><text text-anchor="middle" transform="translate(200,15)" font-family="sans-serif" font-size="10px" fill="#000" opacity="1">−2</text><text text-anchor="middle" transform="translate(300,15)" font-family="sans-serif" font-size="10px" fill="#000" opacity="1">−1</text><text text-anchor="middle" transform="translate(400,15)" font-family="sans-serif" font-size="10px" fill="#000" opacity="1">0</text><text text-anchor="middle" transform="translate(500,15)" font-family="sans-serif" font-size="10px" fill="#000" opacity="1">1</text><text text-anchor="middle" transform="translate(600,15)" font-family="sans-serif" font-size="10px" fill="#000" opacity="1">2</text><text text-anchor="middle" transform="translate(700,15)" font-family="sans-serif" font-size="10px" fill="#000" opacity="1">3</text><text text-anchor="end" transform="translate(800,15)" font-family="sans-serif" font-size="10px" fill="#000" opacity="1">4</text></g><g class="mark-rule role-axis-domain" pointer-events="none"><line transform="translate(0,0)" x2="800" y2="0" stroke="#888" stroke-width="1" opacity="1"/></g><g class="mark-text role-axis-title" pointer-events="none"><text text-anchor="middle" transform="translate(400,37)" font-family="sans-serif" font-size="20px" font-weight="bold" fill="#000" opacity="1">x</text></g></g><path class="foreground" aria-hidden="true" d="" pointer-events="none" display="none"/></g></g><g class="mark-group role-axis" role="graphics-symbol" aria-roledescription="axis" aria-label="Y-axis titled 'y' for a linear scale with values from −1 to 7"><g transform="translate(0.5,0.5)"><path class="background" aria-hidden="true" d="M0,0h0v0h0Z" pointer-events="none"/><g><g class="mark-rule role-axis-tick" pointer-events="none"><line transform="translate(0,800)" x2="-5" y2="0" stroke="#888" stroke-width="1" opacity="1"/><line transform="translate(0,700)" x2="-5" y2="0" stroke="#888" stroke-width="1" opacity="1"/><line transform="translate(0,600)" x2="-5" y2="0" stroke="#888" stroke-width="1" opacity="1"/><line transform="translate(0,500)" x2="-5" y2="0" stroke="#888" stroke-width="1" opacity="1"/><line transform="translate(0,400)" x2="-5" y2="0" stroke="#888" stroke-width="1" opacity="1"/><line transform="translate(0,300)" x2="-5" y2="0" stroke="#888" stroke-width="1" opacity="1"/><line transform="translate(0,200)" x2="-5" y2="0" stroke="#888" stroke-width="1" opacity="1"/><line transform="translate(0,100)" x2="-5" y2="0" stroke="#888" stroke-width="1" opacity="1"/><line transform="translate(0,0)" x2="-5" y2="0" stroke="#888" stroke-width="1" opacity="1"/></g><g class="mark-text role-axis-label" pointer-events="none"><text text-anchor="end" transform="translate(-7,803)" font-family="sans-serif" font-size="10px" fill="#000" opacity="1">−1</text><text text-anchor="end" transform="translate(-7,703)" font-family="sans-serif" font-size="10px" fill="#000" opacity="1">0</text><text text-anchor="end" transform="translate(-7,603)" font-family="sans-serif" font-size="10px" fill="#000" opacity="1">1</text><text text-anchor="end" transform="translate(-7,503)" font-family="sans-serif" font-size="10px" fill="#000" opacity="1">2</text><text text-anchor="end" transform="translate(-7,403)" font-family="sans-serif" font-size="10px" fill="#000" opacity="1">3</text><text text-anchor="end" transform="translate(-7,303)" font-family="sans-serif" font-size="10px" fill="#000" opacity="1">4</text><text text-anchor="end" transform="translate(-7,203)" font-family="sans-serif" font-size="10px" fill="#000" opacity="1">5</text><text text-anchor="end" transform="translate(-7,103)" font-family="sans-serif" font-size="10px" fill="#000" opacity="1">6</text><text text-anchor="end" transform="translate(-7,3)" font-family="sans-serif" font-size="10px" fill="#000" opacity="1">7</text></g><g class="mark-rule role-axis-domain" pointer-events="none"><line transform="translate(0,800)" x2="0" y2="-800" stroke="#888" stroke-width="1" opacity="1"/></g><g class="mark-text role-axis-title" pointer-events="none"><text text-anchor="middle" transform="translate(-25.75,400) rotate(-90) translate(0,-4)" font-family="sans-serif" font-size="20px" font-weight="bold" fill="#000" opacity="1">y</text></g></g><path class="foreground" aria-hidden="true" d="" pointer-events="none" display="none"/></g></g><g class="mark-line role-mark layer_0_marks" clip-path="url(#clip1)" role="graphics-object" aria-roledescription="line mark container"><path aria-label="x: −4; y: −186" role="graphics-symbol" aria-roledescription="line mark" d="M0,19300L10.000000000000009,18047.8L20.000000000000018,16850.399999999998L29.999999999999982,15706.600000000002L39.99999999999999,14615.2L50,13575L60.00000000000001,12584.8L70.00000000000001,11643.4L79.99999999999999,10749.600000000002L89.99999999999999,9902.200000000003L100,9100L110.00000000000001,8341.800000000001L120.00000000000001,7626.399999999998L129.99999999999997,6952.600000000001L140.00000000000003,6319.199999999998L150,5725L160,5168.8L170.00000000000003,4649.399999999999L179.99999999999997,4165.6L190.00000000000003,3716.1999999999985L200,3300L210,2915.7999999999997L220.00000000000003,2562.3999999999996L230.00000000000003,2238.599999999999L240.00000000000003,1943.199999999999L250,1675L260,1432.7999999999997L270,1215.3999999999996L280,1021.5999999999995L290.00000000000006,850.1999999999996L300,700L310,569.7999999999998L320,458.3999999999998L330,364.59999999999974L340.00000000000006,287.1999999999998L350,225L360,176.79999999999998L370,141.39999999999998L380,117.59999999999992L390.00000000000006,104.19999999999999L400,100L410.00000000000006,103.80000000000003L420,114.4L430,130.6L440.00000000000006,151.20000000000005L450,175L460.00000000000006,200.8000000000001L470,227.4000000000001L480.00000000000006,253.60000000000014L490.00000000000006,278.2000000000001L500,300L510.00000000000006,317.80000000000007L520,330.40000000000003L530.0000000000001,336.6000000000001L540,335.20000000000005L550,325L560,304.79999999999984L570,273.4L580.0000000000001,229.59999999999957L590,172.19999999999976L600,100L610,11.7999999999995L620,-93.60000000000035L630.0000000000001,-217.400000000001L640,-360.8000000000004L650,-525L660,-711.2000000000013L670,-920.6000000000004L680.0000000000001,-1154.4000000000015L690,-1413.8000000000013L700,-1700L710,-2014.2000000000016L720,-2357.600000000001L730.0000000000001,-2731.4000000000024L740,-3136.800000000001L750,-3575L760,-4047.200000000002L770,-4554.6L780.0000000000001,-5098.400000000003L790,-5679.800000000003" stroke="#f00" stroke-width="2"/></g><g class="mark-rule role-mark layer_1_layer_0_marks" clip-path="url(#clip2)" role="graphics-object" aria-roledescription="rule mark container" pointer-events="none"><line aria-label="x: −1" role="graphics-symbol" aria-roledescription="rule mark" transform="translate(300,0)" x2="0" y2="800" stroke="black" stroke-dasharray="4,8"/></g><g class="mark-text role-mark layer_1_layer_1_marks" clip-path="url(#clip3)" role="graphics-object" aria-roledescription="text mark container" pointer-events="none"><text aria-label="x: −1" role="graphics-symbol" aria-roledescription="text mark" text-anchor="end" transform="translate(296,406)" font-family="sans-serif" font-size="20px" fill="black">root = -1.0</text></g><g class="mark-group role-title"><g transform="translate(400,-29)"><path class="background" aria-hidden="true" d="M0,0h0v0h0Z" pointer-events="none"/><g><g class="mark-text role-title-text" role="graphics-symbol" aria-roledescription="title" aria-label="Title text '2x^3 - 4x^2 + 6'" pointer-events="none"><text text-anchor="middle" transform="translate(0,16)" font-family="sans-serif" font-size="20px" font-weight="normal" fill="#000" opacity="1">2x^3 - 4x^2 + 6</text></g></g><path class="foreground" aria-hidden="true" d="" pointer-events="none" display="none"/></g></g></g><path class="foreground" aria-hidden="true" d="" display="none"/></g></g></g><defs><clipPath id="clip1"><rect x="0" y="0" width="800" height="800"/></clipPath><clipPath id="clip2"><rect x="0" y="0" width="800" height="800"/></clipPath><clipPath id="clip3"><rect x="0" y="0" width="800" height="800"/></clipPath></defs></svg>